<svg xmlns="http://www.w3.org/2000/svg" viewBox="0 0 8.5 8.5"><g fill-rule="evenodd"><path fill="red" d="M-24.7 5c.3-.9.6-1.7 1.3-2 0 0-.2 1.3.5 2 2 2.7-3 3.7-1.8 0z"/><path fill="#ff0" d="M-24.2 6.1c.1-.5.3-1 .7-1.1 0 0-.1.7.3 1.1 1 1.5-1.7 2-1 0z"/></g><path fill="none" stroke="#000" stroke-linejoin="bevel" stroke-miterlimit="3.4" stroke-width="10.5" d="M-331.2-2.3h97m-44.6-79.2l-48.5 84m40.6-83.7l48.5 84" transform="matrix(.0832 0 0 .09494 0 7.7)"/><path fill="none" stroke="#000" stroke-linejoin="bevel" stroke-miterlimit="3.4" stroke-width=".5" d="M8.2 7.6h-8l2-3.4 2-3.5 2 3.5z"/><path fill="red" d="M4.2 7.4L2.7 5l1.5-2.4L5.7 5z"/><path fill="#ff0" fill-rule="evenodd" d="M2.7 5h1.5L5 6.2l-.8 1.2z"/></svg>
